<?xml version="1.0" standalone="no"?>
<!DOCTYPE svg PUBLIC "-//W3C//DTD SVG 20010904//EN"
 "http://www.w3.org/TR/2001/REC-SVG-20010904/DTD/svg10.dtd">
<svg version="1.0" xmlns="http://www.w3.org/2000/svg"
 width="720.000000pt" height="720.000000pt" viewBox="0 0 720.000000 720.000000"
 preserveAspectRatio="xMidYMid meet">
<metadata>
Created by potrace 1.14, written by Peter Selinger 2001-2017
</metadata>
<g transform="translate(0.000000,720.000000) scale(0.100000,-0.100000)"
fill="#000000" stroke="none">
<path d="M0 3600 l0 -3600 3600 0 3600 0 0 3600 0 3600 -3600 0 -3600 0 0
-3600z m2551 996 c150 -20 220 -41 334 -96 170 -83 290 -202 370 -365 124
-255 124 -671 1 -932 -103 -216 -260 -351 -501 -431 -160 -53 -253 -62 -639
-62 l-346 0 0 950 0 950 338 0 c232 0 370 -5 443 -14z m1599 -417 c0 -263 4
-428 9 -424 5 3 43 52 83 108 40 57 188 248 328 425 l255 321 223 1 c182 0
222 -2 215 -13 -4 -7 -147 -190 -318 -406 -170 -216 -315 -400 -322 -409 -10
-14 -1 -35 61 -132 260 -409 586 -930 586 -935 0 -3 -102 -4 -227 -3 l-227 3
-99 160 c-289 466 -390 625 -398 625 -5 0 -44 -26 -88 -57 l-80 -58 -1 -337 0
-338 -200 0 -200 0 0 950 0 950 200 0 200 0 0 -431z m1641 -1100 c59 -32 90
-94 91 -181 2 -85 -15 -131 -64 -172 -70 -61 -187 -72 -279 -28 -83 40 -123
142 -99 256 16 80 53 119 140 147 48 16 164 4 211 -22z"/>
<path d="M2170 3660 l0 -622 168 4 c137 4 179 9 237 28 172 55 275 168 327
357 28 104 31 361 5 468 -36 147 -119 265 -223 318 -96 49 -149 59 -336 64
l-178 6 0 -623z"/>
</g>
</svg>
